<svg width="200" height="121" viewBox="0 0 200 121" fill="none" xmlns="http://www.w3.org/2000/svg">
<path d="M138.176 94.1494V77.7772H148.367V78.7936H139.192V85.461H147.435V86.4774H139.192V93.1331H148.367V94.1494H138.176Z" fill="#FBF7EC"/>
<path d="M151.959 94.1494V77.7772H152.975V93.1331H162.15V94.1494H151.959Z" fill="#FBF7EC"/>
<path d="M166.078 77.7778H167.094V94.15H166.078V77.7778Z" fill="#FBF7EC"/>
<path d="M171.145 94.1494V93.2709L180.671 78.7936H171.145V77.7772H181.963V78.6558L172.425 93.1331H181.963V94.1494H171.145Z" fill="#FBF7EC"/>
<path d="M196.995 89.5331L192.469 78.6132L187.943 89.5331H196.995ZM198.905 94.15L197.412 90.5494H187.514L186.022 94.15H184.926L191.715 77.7778H193.223L200 94.15H198.905Z" fill="#FBF7EC"/>
<path d="M145.907 114.021C147.156 114.021 148.237 113.571 149.117 112.682C149.999 111.8 150.447 110.724 150.447 109.481C150.447 108.233 149.999 107.153 149.118 106.27C148.235 105.39 147.155 104.942 145.907 104.942H139.192V114.021H145.907ZM148.643 120.298L145.569 115.037H139.192V120.298H138.176V103.926H145.907C147.434 103.926 148.753 104.476 149.829 105.56C150.913 106.637 151.463 107.956 151.463 109.481C151.463 110.893 150.979 112.144 150.025 113.197C149.127 114.19 148.014 114.787 146.715 114.977L149.815 120.298H148.643Z" fill="#FBF7EC"/>
<path d="M155.066 120.298V103.926H165.258V104.942H156.083V111.61H164.326V112.626H156.083V119.282H165.258V120.298H155.066Z" fill="#FBF7EC"/>
<path d="M169.184 103.926H170.2V120.298H169.184V103.926Z" fill="#FBF7EC"/>
<path d="M179.348 120.635C177.388 120.635 175.698 119.899 174.324 118.45L174.229 118.348L174.968 117.655L175.062 117.754C175.878 118.613 176.885 119.184 178.056 119.453C178.534 119.562 178.959 119.618 179.32 119.618C179.415 119.618 179.507 119.614 179.595 119.607C180.61 119.549 181.45 119.24 182.096 118.687C182.865 118.025 183.219 117.1 183.147 115.939C183.098 115.087 182.753 114.404 182.123 113.909C181.479 113.409 180.431 113.019 179.008 112.748L178.646 112.667C175.928 112.072 174.484 110.691 174.355 108.559C174.277 107.338 174.651 106.255 175.465 105.341C176.278 104.42 177.311 103.914 178.532 103.836C178.66 103.823 178.798 103.817 178.942 103.817C179.386 103.817 179.888 103.882 180.433 104.008C181.83 104.32 183.023 104.99 183.98 105.999L184.074 106.099L183.336 106.807L183.241 106.706C182.426 105.839 181.401 105.265 180.193 104.995C179.727 104.89 179.307 104.836 178.941 104.836C178.826 104.836 178.716 104.842 178.611 104.853C177.653 104.91 176.851 105.298 176.221 106.006C175.599 106.715 175.313 107.552 175.37 108.497C175.471 110.215 176.714 111.277 179.172 111.746L179.563 111.814C180.888 112.094 181.918 112.494 182.626 113.005C183.569 113.692 184.086 114.659 184.164 115.878C184.255 117.314 183.822 118.483 182.874 119.354C182.039 120.119 180.962 120.547 179.671 120.623C179.589 120.63 179.48 120.635 179.348 120.635Z" fill="#FBF7EC"/>
<path d="M76.1893 31.746C76.1893 49.279 61.9763 63.492 44.4433 63.492C26.9103 63.492 12.6973 49.279 12.6973 31.746C12.6973 14.213 26.9103 0 44.4433 0C61.9763 0 76.1893 14.213 76.1893 31.746Z" fill="#C0AF83"/>
<path d="M44.4443 79.3647C44.4443 91.6375 34.4949 101.587 22.2222 101.587C9.94943 101.587 0 91.6375 0 79.3647H44.4443Z" fill="#C86B4A"/>
<path d="M117.461 57.1426C117.461 74.6756 103.248 88.8886 85.7148 88.8886C68.1817 88.8886 53.9688 74.6756 53.9688 57.1426C53.9688 39.6096 68.1817 25.3966 85.7148 25.3966C103.248 25.3966 117.461 39.6096 117.461 57.1426Z" fill="#D88456"/>
<path d="M85.7148 88.8886C94.4811 88.8886 101.588 81.7821 101.588 73.0159C101.588 64.2491 94.4811 57.1426 85.7148 57.1426V88.8886Z" fill="#FBF7EC"/>
<path d="M117.461 120.635C117.461 103.102 103.248 88.8886 85.7148 88.8886V120.635H117.461Z" fill="#F2AD6A"/>
<path d="M22.2227 63.912H0V63.0721H22.2227V63.912Z" fill="#FBF7EC"/>
<path d="M44.4438 48.0393H0V47.1993H44.4438V48.0393Z" fill="#FBF7EC"/>
<path d="M76.192 31.7477C76.192 45.8252 67.031 57.7636 54.331 61.9073C54.0958 60.3506 53.9727 58.7603 53.9727 57.1476C53.9727 43.059 63.1449 31.1205 75.8336 26.9768C76.0688 28.5335 76.192 30.1238 76.192 31.7477Z" fill="#5F6546"/>
<path d="M141.148 60.3456C140.485 60.3456 139.91 60.5853 139.439 61.0562C138.968 61.5271 138.73 62.1028 138.73 62.7691C138.73 63.4321 138.968 64.0072 139.439 64.4781C139.91 64.9491 140.485 65.1876 141.148 65.1876C141.815 65.1876 142.391 64.9491 142.862 64.4781C143.333 64.0072 143.572 63.4321 143.572 62.7691C143.572 62.1028 143.333 61.5271 142.862 61.0562C142.391 60.5853 141.815 60.3456 141.148 60.3456ZM141.148 65.7397C140.335 65.7397 139.628 65.4474 139.047 64.8712C138.471 64.2906 138.178 63.5839 138.178 62.7691C138.178 61.9527 138.471 61.246 139.046 60.6687C139.627 60.088 140.334 59.7946 141.148 59.7946C141.699 59.7946 142.215 59.9391 142.681 60.2235C143.036 60.4358 143.335 60.7118 143.572 61.045V59.9604H144.124V65.5729H143.572V64.4882C143.335 64.8214 143.036 65.0969 142.681 65.3119C142.215 65.5953 141.699 65.7397 141.148 65.7397Z" fill="#FBF7EC"/>
<path d="M147.225 65.5785V59.9609H147.777V61.0416C148.011 60.7107 148.308 60.4363 148.663 60.2224C149.131 59.9391 149.647 59.7946 150.195 59.7946H150.293V60.3456H150.195C149.532 60.3456 148.957 60.5853 148.486 61.0562C148.015 61.5271 147.777 62.1022 147.777 62.7641V65.5785H147.225Z" fill="#FBF7EC"/>
<path d="M156.09 60.3518C155.427 60.3518 154.852 60.5914 154.381 61.0623C153.91 61.5333 153.672 62.1089 153.672 62.7753C153.672 63.4383 153.91 64.0134 154.381 64.4832C154.852 64.9541 155.427 65.1938 156.09 65.1938C156.756 65.1938 157.332 64.9541 157.803 64.4832C158.274 64.0134 158.513 63.4383 158.513 62.7753C158.513 62.1089 158.274 61.5333 157.803 61.0623C157.332 60.5914 156.756 60.3518 156.09 60.3518ZM158.513 68.208V64.4944C158.276 64.8264 157.978 65.103 157.622 65.3181C157.155 65.6014 156.64 65.7459 156.09 65.7459C155.277 65.7459 154.569 65.4536 153.989 64.8774C153.412 64.2956 153.119 63.5889 153.119 62.7753C153.119 61.9589 153.412 61.2522 153.988 60.6737C154.569 60.093 155.277 59.7996 156.09 59.7996C156.64 59.7996 157.156 59.9441 157.622 60.2297C157.978 60.4419 158.276 60.718 158.513 61.0511V59.9665H159.066V68.208H158.513Z" fill="#FBF7EC"/>
<path d="M164.502 65.7403C163.864 65.7403 163.31 65.5101 162.853 65.0549C162.398 64.5985 162.168 64.0436 162.168 63.4058V59.9609H162.72V63.4058C162.72 63.8935 162.895 64.3185 163.241 64.6685C163.59 65.0129 164.015 65.1881 164.502 65.1881C164.994 65.1881 165.419 65.0129 165.763 64.6674C166.113 64.3185 166.29 63.8935 166.29 63.4058V59.9609H166.843V63.4058C166.843 64.0436 166.612 64.5985 166.157 65.0549C165.7 65.5101 165.144 65.7403 164.502 65.7403Z" fill="#FBF7EC"/>
<path d="M170.152 57.1426H170.704V58.3465H170.152V57.1426ZM170.152 59.9665H170.704V65.5784H170.152V59.9665Z" fill="#FBF7EC"/>
<path d="M176.293 65.7403C175.651 65.7403 175.096 65.5102 174.644 65.0538C174.189 64.603 173.959 64.0486 173.959 63.4058V58.4692H174.511V59.9878H176.391V60.5349H174.511V63.4058C174.511 63.8935 174.686 64.3185 175.032 64.6685C175.381 65.0129 175.806 65.1882 176.293 65.1882H176.391V65.7403H176.293Z" fill="#FBF7EC"/>
<path d="M184.856 62.4942C184.795 61.9113 184.542 61.4101 184.105 61.0047C183.645 60.5674 183.089 60.3462 182.453 60.3462C181.82 60.3462 181.265 60.5674 180.802 61.0036C180.367 61.4101 180.114 61.9113 180.05 62.4942H184.856ZM182.453 65.7403C181.64 65.7403 180.933 65.4474 180.352 64.8718C179.775 64.2911 179.482 63.5839 179.482 62.7697C179.482 61.9533 179.775 61.246 180.351 60.6693C180.932 60.0886 181.639 59.7946 182.453 59.7946C183.271 59.7946 183.978 60.0897 184.555 60.6704C185.134 61.246 185.429 61.9533 185.429 62.7697V63.0463H180.05C180.114 63.6259 180.367 64.1265 180.802 64.5364C181.264 64.9687 181.82 65.1882 182.453 65.1882C183.119 65.1882 183.696 64.9496 184.167 64.4787L184.238 64.4087L184.624 64.8029L184.555 64.8718C183.977 65.4474 183.269 65.7403 182.453 65.7403Z" fill="#FBF7EC"/>
<path d="M190.864 65.7403C190.221 65.7403 189.667 65.5102 189.215 65.0538C188.759 64.603 188.529 64.0486 188.529 63.4058V58.4692H189.081V59.9878H190.962V60.5349H189.081V63.4058C189.081 63.8935 189.257 64.3185 189.602 64.6685C189.951 65.0129 190.376 65.1882 190.864 65.1882H190.962V65.7403H190.864Z" fill="#FBF7EC"/>
<path d="M197.023 60.3456C196.36 60.3456 195.785 60.5853 195.314 61.0562C194.843 61.5271 194.605 62.1028 194.605 62.7691C194.605 63.4321 194.843 64.0072 195.314 64.4781C195.785 64.9491 196.36 65.1876 197.023 65.1876C197.69 65.1876 198.266 64.9491 198.737 64.4781C199.208 64.0072 199.447 63.4321 199.447 62.7691C199.447 62.1028 199.208 61.5271 198.737 61.0562C198.266 60.5853 197.69 60.3456 197.023 60.3456ZM197.023 65.7397C196.21 65.7397 195.503 65.4474 194.922 64.8712C194.346 64.2906 194.053 63.5839 194.053 62.7691C194.053 61.9527 194.346 61.246 194.921 60.6687C195.502 60.088 196.209 59.7946 197.023 59.7946C197.574 59.7946 198.091 59.9391 198.556 60.2235C198.912 60.4358 199.21 60.7118 199.447 61.045V59.9604H200V65.5729H199.447V64.4882C199.21 64.8214 198.912 65.0969 198.556 65.3119C198.091 65.5953 197.574 65.7397 197.023 65.7397Z" fill="#FBF7EC"/>
</svg>
